<?xml version="1.0" encoding="UTF-8"?>
<svg id="_레이어_1" data-name="레이어_1" xmlns="http://www.w3.org/2000/svg" version="1.1" viewBox="0 0 1102.94 1423.27">
  <!-- Generator: Adobe Illustrator 30.0.0, SVG Export Plug-In . SVG Version: 2.1.1 Build 123)  -->
  <path d="M1055.87,131.38c-29.64-45.04-71.07-80.99-119.83-103.96-49.87-23.49-105.12-32.13-159.77-24.97-39.03,5.11-76.94,17.98-112.68,38.23-18.55,10.51-31.39,28.54-35.25,49.45-3.84,20.81,1.69,42.1,15.15,58.4l.08.09c22.1,26.76,60.03,33.82,90.2,16.78,46.82-26.44,97.02-29.51,141.33-8.63,51.54,24.28,84.84,75.72,84.84,131.06,0,92-53.33,149.61-163.05,176.11-104.31,25.2-185.15,59.6-262.12,111.57-21.74,14.68-43.03,30.69-64.76,48.71-42.71-25.89-88.31-43.33-135.76-51.9-48.95-8.84-99.39-8.04-149.9,2.38-50.05,10.32-100.16,30.08-148.95,58.73-17.39,10.21-29.74,27.38-33.88,47.1-4.12,19.66.26,40.27,12.03,56.54,21.71,30.02,62.19,38.51,94.15,19.75,68.27-40.07,137.82-55.21,201.15-43.77,17.45,3.15,34.65,8.24,51.37,15.2-18.26,19.23-37.17,39.99-57.31,62.89-45.08,51.28-82.58,133.52-100.29,219.98-20.01,97.72-13.46,190.39,18.46,260.96,21.22,46.91,52.87,83.82,94.06,109.73,43.75,27.51,96.87,41.46,157.88,41.46,52.34,0,98.89-11.58,138.34-34.43,38.15-22.09,68.53-53.9,90.29-94.53,18.93-35.34,30.82-76.64,35.35-122.75,4.07-41.41,2.14-85.99-5.72-132.5-15.2-89.88-52.05-182.15-103.77-259.82-14.45-21.71-30.05-42.12-46.54-60.9,73.34-56.73,147.17-90.68,249.47-115.39,89.67-21.66,158.88-61.53,205.73-118.51,44.29-53.87,66.74-120.01,66.74-196.6,0-55.55-16.27-109.66-47.06-156.46ZM508.49,858.49c40.83,61.32,69.88,133.91,81.8,204.41,11.31,66.88,6.09,125.09-14.69,163.9-19.54,36.48-52.13,53.47-102.57,53.47-62.28,0-100.94-21.33-121.65-67.13-19.32-42.71-22.48-105.89-8.66-173.33,12.75-62.23,38.64-121.33,67.59-154.26,23.37-26.58,44.79-49.93,65.04-70.86,11.6,13.45,22.71,28.12,33.15,43.8Z" fill="#fff"/>
</svg>