<?xml version="1.0" encoding="UTF-8"?>
<svg id="_레이어_1" data-name="레이어_1" xmlns="http://www.w3.org/2000/svg" version="1.1" viewBox="0 0 695.57 531.49">
  <!-- Generator: Adobe Illustrator 30.0.0, SVG Export Plug-In . SVG Version: 2.1.1 Build 123)  -->
  <path d="M636.74,6.67c-38.01-17.16-86.6-.32-133.37,40.41-9.69-18.7-23.13-32.67-40.27-40.41-38.01-17.16-86.6-.32-133.37,40.41-9.69-18.7-23.13-32.67-40.27-40.41C217.39-25.86,107.34,63.76,43.65,206.84c-63.69,143.08-56.89,285.45,15.18,317.98,38.01,17.16,86.6.32,133.37-40.41,9.69,18.7,23.13,32.67,40.27,40.41,38.01,17.16,86.6.32,133.37-40.41,9.69,18.7,23.13,32.67,40.27,40.41,72.07,32.53,182.12-57.08,245.8-200.17,63.69-143.08,56.89-285.45-15.18-317.98Z" fill="#1ca081"/>
</svg>