<?xml version="1.0" encoding="UTF-8"?>
<svg id="_레이어_1" data-name="레이어_1" xmlns="http://www.w3.org/2000/svg" version="1.1" viewBox="0 0 444.63 413.26">
  <!-- Generator: Adobe Illustrator 30.0.0, SVG Export Plug-In . SVG Version: 2.1.1 Build 123)  -->
  <path d="M305.32,45.46l45.29-18.53c4.59-1.88,9.52,1.84,8.99,6.77l-5.3,48.65c-4.84,44.44,13.75,88.21,49.1,115.58l38.69,29.96c3.92,3.04,3.17,9.16-1.37,11.17l-44.78,19.74c-40.91,18.03-69.52,56.01-75.55,100.31l-6.6,48.49c-.67,4.92-6.35,7.33-10.35,4.4l-39.48-28.91c-36.07-26.41-83.27-32.2-124.65-15.27l-45.29,18.53c-4.59,1.88-9.52-1.84-8.99-6.77l5.3-48.65c4.84-44.44-13.75-88.21-49.1-115.58L2.54,185.37c-3.92-3.04-3.17-9.16,1.37-11.17l44.78-19.74c40.91-18.03,69.52-56.01,75.55-100.31l6.6-48.49c.67-4.92,6.35-7.33,10.35-4.4l39.48,28.91c36.07,26.41,83.27,32.2,124.65,15.27Z" fill="#1ca081"/>
</svg>