<?xml version="1.0" encoding="UTF-8"?>
<svg id="_레이어_1" data-name="레이어_1" xmlns="http://www.w3.org/2000/svg" version="1.1" viewBox="0 0 296.36 296.36">
  <!-- Generator: Adobe Illustrator 30.0.0, SVG Export Plug-In . SVG Version: 2.1.1 Build 123)  -->
  <path d="M296.36,148.18c0-16.17-26.64-29.27-67.72-29.27-3.52,0-7.02.1-10.49.29,2.59-2.33,5.14-4.73,7.62-7.22,29.06-29.05,38.62-57.15,27.2-68.58-11.43-11.43-39.53-1.87-68.59,27.19-2.49,2.49-4.9,5.04-7.21,7.62.18-3.47.28-6.97.28-10.49,0-41.09-13.1-67.72-29.26-67.72s-29.28,26.63-29.28,67.72c0,3.52.11,7.02.3,10.49-2.33-2.59-4.73-5.14-7.22-7.62-29.05-29.05-57.15-38.62-68.58-27.19-11.43,11.43-1.87,39.53,27.19,68.58,2.48,2.48,5.04,4.89,7.62,7.22-3.47-.19-6.97-.29-10.49-.29C26.64,118.91,0,132.01,0,148.18s26.64,29.27,67.72,29.27c3.52,0,7.02-.1,10.49-.29-2.59,2.32-5.14,4.73-7.62,7.22-29.06,29.05-38.62,57.15-27.19,68.58,11.43,11.43,39.53,1.86,68.58-27.19,2.49-2.48,4.89-5.04,7.22-7.63-.19,3.47-.3,6.98-.3,10.5,0,41.09,13.11,67.72,29.28,67.72s29.26-26.63,29.26-67.72c0-3.52-.1-7.02-.28-10.5,2.32,2.59,4.73,5.14,7.21,7.63,29.05,29.05,57.15,38.62,68.59,27.18,11.42-11.43,1.86-39.52-27.19-68.58-2.49-2.49-5.04-4.89-7.62-7.22,3.47.19,6.97.29,10.49.29,41.08,0,67.72-13.11,67.72-29.27Z" fill="#008133"/>
</svg>