<?xml version="1.0" encoding="UTF-8"?>
<svg id="_레이어_1" data-name="레이어_1" xmlns="http://www.w3.org/2000/svg" version="1.1" viewBox="0 0 189.8 184.32">
  <!-- Generator: Adobe Illustrator 30.0.0, SVG Export Plug-In . SVG Version: 2.1.1 Build 123)  -->
  <path d="M187.87,67.55c-6.67-20.54-28.74-31.78-49.27-25.11-1.73.56-3.38,1.24-4.97,2.01.24-1.75.37-3.53.37-5.35C134,17.51,116.49,0,94.9,0s-39.1,17.51-39.1,39.1c0,1.81.13,3.6.37,5.35-1.59-.77-3.24-1.45-4.97-2.01-20.54-6.67-42.6,4.57-49.27,25.11-6.67,20.54,4.57,42.6,25.11,49.27,1.73.56,3.46.99,5.2,1.3-1.22,1.27-2.38,2.64-3.44,4.11-12.7,17.47-8.82,41.92,8.65,54.62,17.47,12.69,41.92,8.82,54.62-8.65,1.07-1.47,2.01-2.99,2.84-4.55.83,1.56,1.77,3.08,2.84,4.55,12.7,17.47,37.15,21.35,54.62,8.65s21.35-37.15,8.65-54.62c-1.07-1.47-2.22-2.83-3.45-4.11,1.74-.31,3.47-.74,5.2-1.3,20.54-6.67,31.78-28.73,25.11-49.27Z" fill="#9e5da9"/>
</svg>