<?xml version="1.0" encoding="UTF-8"?>
<svg id="_레이어_1" data-name="레이어_1" xmlns="http://www.w3.org/2000/svg" version="1.1" viewBox="0 0 123.11 57.53">
  <!-- Generator: Adobe Illustrator 30.0.0, SVG Export Plug-In . SVG Version: 2.1.1 Build 123)  -->
  <circle cx="9.03" cy="9.03" r="9.03"/>
  <circle cx="114.09" cy="9.03" r="9.03"/>
  <path d="M100.39,23.76c-1.73-3.27-4.95-5.78-8.81-6.57-5.32-1.09-10.1,2.38-14.98,3.73-10.11,2.79-20.54,3.4-30.69.08-4.09-1.34-7.9-4.06-12.35-4.01-7.23.08-13.68,6.28-11.81,13.74,1.08,4.3,4.04,8.19,7,11.4.55.59,1.14,1.21,1.78,1.73,8.67,7.12,17.14,12.96,28.77,13.62,10.88.61,21.23-3.6,29.59-10.39,6.54-5.32,16.55-13.76,11.5-23.32Z"/>
</svg>