<svg width="952" height="1025" viewBox="0 0 952 1025" fill="none" xmlns="http://www.w3.org/2000/svg">
<path d="M374.874 28.1889C437.097 -8.88802 514.505 -9.42431 577.236 26.7866L719.434 108.868L849.713 182.518C912.479 218.001 951.288 284.521 951.288 356.622V666.415C951.288 738.749 912.231 805.447 849.147 840.839L709.065 919.432L574.675 997.674C513.332 1033.39 437.655 1033.91 375.823 999.052L234.601 919.432L99.75 841.316C38.0107 805.552 0 739.605 0 668.255V358.472C0 285.387 39.8657 218.12 103.977 183.031L239.477 108.868L374.874 28.1889ZM751.654 402.286C734.779 436.945 715.349 464.138 693.313 483.997C671.154 503.883 647.28 517.567 621.648 525.004C596.017 532.441 569.126 534.497 541.022 531.035C512.873 527.618 484.828 520.275 456.843 508.87C484.911 522.557 509.41 538.994 530.477 558.137C551.497 577.234 567.533 599.316 578.492 624.29C589.451 649.265 594.466 677.273 593.537 708.313C592.562 739.399 583.727 773.525 566.938 810.691C583.727 773.525 603.272 744.245 625.574 722.67C647.831 701.141 672.074 686.178 698.119 677.781C724.165 669.384 751.606 666.778 780.441 669.873C809.231 673.014 838.142 680.491 867.039 692.258C839.882 679.025 815.747 663.042 794.542 644.402C773.246 625.762 756.933 604.411 745.56 580.397C734.141 556.428 728.574 529.61 728.859 499.941C729.144 470.363 736.697 437.857 751.654 402.286ZM751.792 401.957C751.746 402.067 751.7 402.176 751.654 402.286C751.715 402.161 751.776 402.036 751.837 401.912L751.792 401.957Z" fill="white"/>
</svg>
