<svg width="300" height="300" viewBox="0 0 300 300" fill="none" xmlns="http://www.w3.org/2000/svg">
<mask id="mask0_353_25" style="mask-type:alpha" maskUnits="userSpaceOnUse" x="0" y="0" width="300" height="300">
<rect width="300" height="300" fill="#D9D9D9"/>
</mask>
<g mask="url(#mask0_353_25)">
<path d="M50 250.002V137.502C43.125 137.502 37.2396 135.054 32.3438 130.158C27.4479 125.262 25 119.377 25 112.502V87.502C25 80.627 27.4479 74.7415 32.3438 69.8457C37.2396 64.9499 43.125 62.502 50 62.502H90C88.9583 60.627 88.2813 58.6478 87.9688 56.5645C87.6563 54.4811 87.5 52.2936 87.5 50.002C87.5 39.5853 91.1458 30.7311 98.4375 23.4395C105.729 16.1478 114.583 12.502 125 12.502C129.792 12.502 134.271 13.3874 138.438 15.1582C142.604 16.929 146.458 19.377 150 22.502C153.542 19.1686 157.396 16.6686 161.563 15.002C165.729 13.3353 170.208 12.502 175 12.502C185.417 12.502 194.271 16.1478 201.563 23.4395C208.854 30.7311 212.5 39.5853 212.5 50.002C212.5 52.2936 212.292 54.429 211.875 56.4082C211.458 58.3874 210.833 60.4186 210 62.502H250C256.875 62.502 262.76 64.9499 267.656 69.8457C272.552 74.7415 275 80.627 275 87.502V112.502C275 119.377 272.552 125.262 267.656 130.158C262.76 135.054 256.875 137.502 250 137.502V250.002C250 256.877 247.552 262.762 242.656 267.658C237.76 272.554 231.875 275.002 225 275.002H75C68.125 275.002 62.2396 272.554 57.3438 267.658C52.4479 262.762 50 256.877 50 250.002ZM166.094 41.0957C163.698 43.4915 162.5 46.4603 162.5 50.002C162.5 53.5436 163.698 56.5124 166.094 58.9082C168.49 61.304 171.458 62.502 175 62.502C178.542 62.502 181.51 61.304 183.906 58.9082C186.302 56.5124 187.5 53.5436 187.5 50.002C187.5 46.4603 186.302 43.4915 183.906 41.0957C181.51 38.6999 178.542 37.502 175 37.502C171.458 37.502 168.49 38.6999 166.094 41.0957ZM112.5 50.002C112.5 53.5436 113.698 56.5124 116.094 58.9082C118.49 61.304 121.458 62.502 125 62.502C128.542 62.502 131.51 61.304 133.906 58.9082C136.302 56.5124 137.5 53.5436 137.5 50.002C137.5 46.4603 136.302 43.4915 133.906 41.0957C131.51 38.6999 128.542 37.502 125 37.502C121.458 37.502 118.49 38.6999 116.094 41.0957C113.698 43.4915 112.5 46.4603 112.5 50.002ZM50 87.502V112.502H137.5V87.502H50ZM137.5 250.002V137.502H75V250.002H137.5ZM162.5 250.002H225V137.502H162.5V250.002ZM250 112.502V87.502H162.5V112.502H250Z" fill="white"/>
</g>
</svg>
