<svg width="952" height="1025" viewBox="0 0 952 1025" fill="none" xmlns="http://www.w3.org/2000/svg">
<path d="M374.874 28.1893C437.097 -8.88754 514.505 -9.42473 577.236 26.786L719.434 108.868L849.713 182.517C912.479 218 951.288 284.521 951.288 356.623V666.416C951.288 738.75 912.231 805.446 849.147 840.839L709.065 919.432L574.675 997.675C513.332 1033.39 437.655 1033.91 375.823 999.053L234.601 919.432L99.75 841.316C38.0106 805.552 0 739.606 0 668.256V358.472C0.000131789 285.386 39.8658 218.121 103.977 183.031L239.477 108.868L374.874 28.1893Z" fill="url(#paint0_linear_350_2)"/>
<defs>
<linearGradient id="paint0_linear_350_2" x1="250.253" y1="129.818" x2="735.613" y2="940.024" gradientUnits="userSpaceOnUse">
<stop offset="1" stop-color="white"/>
</linearGradient>
</defs>
</svg>
