<?xml version="1.0" encoding="UTF-8"?>
<svg id="_레이어_1" data-name="레이어_1" xmlns="http://www.w3.org/2000/svg" version="1.1" viewBox="0 0 690.69 583.02">
  <!-- Generator: Adobe Illustrator 30.0.0, SVG Export Plug-In . SVG Version: 2.1.1 Build 123)  -->
  <path d="M518.11,237.68c-95.41-.05-172.76,77.28-172.76,172.67,0-95.39-77.36-172.72-172.76-172.67C76.98,237.72,0,316.4,0,412v155.54c0,8.7,7.48,15.54,16.14,14.74,87.8-8.14,156.53-82.01,156.53-171.93,0,95.36,77.31,172.67,172.67,172.67s172.67-77.31,172.67-172.67c0,89.92,68.74,163.79,156.53,171.93,8.66.8,16.14-6.04,16.14-14.74v-155.54c0-95.6-76.99-174.28-172.58-174.32Z" fill="#fff"/>
  <circle cx="511.24" cy="81.56" r="81.56" fill="#fff"/>
  <circle cx="159.82" cy="81.56" r="81.56" fill="#fff"/>
</svg>