<svg width="21" height="19" viewBox="0 0 21 19" fill="none" xmlns="http://www.w3.org/2000/svg">
<path d="M10.6546 18.2411C11.3485 18.2411 12.061 18.456 12.7403 18.5765C13.8997 18.7825 15.0282 18.9384 16.1777 18.5995C16.9404 18.3745 17.6716 18.0167 18.3148 17.5444C19.7328 16.5017 20.4792 14.9359 20.4611 13.1729C20.4518 12.2961 20.383 11.4181 20.2426 10.5525C20.1646 10.0719 20.0405 9.60609 19.9391 9.1308C19.8738 8.82554 19.9484 8.53328 20.0224 8.23334C20.1459 7.73266 21.31 3.72897 18.5583 1.44046C15.8066 -0.847447 12.3669 0.22477 11.0088 0.654012C10.5969 0.783906 10.1658 0.955721 9.73521 0.806933C9.28077 0.649879 8.8677 0.456809 8.39228 0.344037C7.16006 0.0511847 5.72625 -0.140706 4.47421 0.12971C3.38531 0.364701 2.37506 0.959852 1.58445 1.74807C1.04029 2.29068 0.587603 2.94074 0.315522 3.66638C-0.0608457 4.66892 -0.0561839 5.92949 0.106948 6.97514C0.177444 7.42504 0.293382 7.86787 0.458844 8.29179C0.627802 8.72576 0.74782 9.01625 0.641784 9.49391C0.35106 10.7999 -0.102795 12.1869 0.020719 13.5407C0.126754 14.7086 0.595174 15.841 1.31645 16.755C1.59552 17.1087 1.91421 17.431 2.26844 17.7079C3.26878 18.4909 4.5249 18.9443 5.788 18.9951C6.97012 19.0423 8.14584 18.74 9.28951 18.4785C9.73229 18.3775 10.1972 18.2411 10.6546 18.2411Z" fill="#c1c1c1"/>
</svg>
